<?xml version="1.0" encoding="UTF-8" standalone="no"?><!-- Generator: Gravit.io --><svg xmlns="http://www.w3.org/2000/svg" xmlns:xlink="http://www.w3.org/1999/xlink" style="isolation:isolate" viewBox="0 0 1920 1280" width="1920pt" height="1280pt"><path d=" M 639.5 696.746 Q 701.114 452.079 770.5 605.746 C 839.886 759.412 969.906 833.432 1067.5 666.746 Q 1165.094 500.059 1280.5 520.746" fill="none"/><path d=" M 272.875 831 Q 393.533 548.241 565.581 520.988 C 737.63 493.734 1028.102 745.832 1229.198 728.798 Q 1430.294 711.764 1705.125 231.415" fill="none" vector-effect="non-scaling-stroke" stroke-width="13" stroke-dasharray="0,0,0" stroke="rgb(45,54,175)" stroke-linejoin="miter" stroke-linecap="round" stroke-miterlimit="3"/><path d=" M 639.5 696.746 Q 680.248 549.011 770.5 605.746 C 860.752 662.481 990.762 736.491 1067.5 666.746 Q 1144.238 597.001 1280.5 520.746" fill="none"/><path d=" M 639.5 696.746 Q 693.5 613.746 770.5 605.746 C 847.5 597.746 977.5 671.746 1067.5 666.746 Q 1157.5 661.746 1280.5 520.746" fill="none"/><path d=" M 272.875 831 Q 363.922 327.707 565.581 520.988 C 767.241 714.268 1057.735 966.4 1229.198 728.798 Q 1400.661 491.196 1705.125 231.415" fill="none" vector-effect="non-scaling-stroke" stroke-width="13" stroke-dasharray="0,0,0" stroke="rgb(87,45,175)" stroke-linejoin="miter" stroke-linecap="round" stroke-miterlimit="3"/><path d=" M 272.875 831 Q 410.544 -2.512 565.581 520.988 C 720.618 1044.487 1011.135 1296.653 1229.198 728.798 Q 1447.261 160.943 1705.125 231.415" fill="none" vector-effect="non-scaling-stroke" stroke-width="13" stroke-dasharray="0,0,0" stroke="rgb(128,45,175)" stroke-linejoin="miter" stroke-linecap="round" stroke-miterlimit="3"/></svg>